<?xml version="1.0" encoding="UTF-8"?>
<svg width="308px" height="48px" viewBox="0 0 308 48" version="1.1" xmlns="http://www.w3.org/2000/svg" xmlns:xlink="http://www.w3.org/1999/xlink">
    <title>DTV-brand</title>
    <g id="DTV-brand" stroke="none" stroke-width="1" fill="none" fill-rule="evenodd">
        <g id="Group-6" transform="translate(87.000000, 0.000000)" fill="#FFFFFF" fill-rule="nonzero">
            <path d="M6.46,19 C10.88,19 13.8,16.28 13.8,12.3 C13.8,8.32 10.88,5.6 6.46,5.6 L1.16,5.6 L1.16,19 L6.46,19 Z M6.34,16.14 L4.46,16.14 L4.46,8.46 L6.34,8.46 C8.84,8.46 10.48,9.98 10.48,12.3 C10.48,14.62 8.84,16.14 6.34,16.14 Z M17.42,7.78 C18.5,7.78 19.28,7.02 19.28,6 C19.28,5.02 18.5,4.18 17.42,4.18 C16.34,4.18 15.58,5.02 15.58,6 C15.58,7.02 16.34,7.78 17.42,7.78 Z M19.02,19 L19.02,8.96 L15.82,8.96 L15.82,19 L19.02,19 Z M26.06,22.8 C29.22,22.8 31.84,21.1 31.84,18 L31.84,8.96 L28.7,8.96 L28.7,9.62 C28,9 27,8.66 25.68,8.66 C23.06,8.66 20.84,10.72 20.84,13.5 C20.84,16.34 23.06,18.42 25.68,18.42 C27,18.42 28,18.06 28.7,17.44 L28.7,17.74 C28.7,19.32 27.42,20.18 26.02,20.18 C25,20.18 24.4,19.88 23.68,19.28 L21.64,21.28 C22.64,22.3 24.14,22.8 26.06,22.8 Z M26.36,15.8 C24.96,15.8 23.96,14.84 23.96,13.5 C23.96,12.16 24.96,11.22 26.36,11.22 C27.64,11.22 28.7,12.16 28.7,13.5 C28.7,14.84 27.64,15.8 26.36,15.8 Z M35.94,7.78 C37.02,7.78 37.8,7.02 37.8,6 C37.8,5.02 37.02,4.18 35.94,4.18 C34.86,4.18 34.1,5.02 34.1,6 C34.1,7.02 34.86,7.78 35.94,7.78 Z M37.54,19 L37.54,8.96 L34.34,8.96 L34.34,19 L37.54,19 Z M44.72,19.3 C45.86,19.3 46.68,18.98 47.46,18.56 L46.72,16.04 C46.3,16.28 45.7,16.44 45.26,16.44 C44.42,16.44 43.92,16.02 43.92,14.98 L43.92,11.5 L46.88,11.5 L46.88,8.96 L43.92,8.96 L43.92,6 L40.72,6 L40.72,8.96 L38.9,8.96 L38.9,11.5 L40.72,11.5 L40.72,15.3 C40.72,17.94 42.22,19.3 44.72,19.3 Z M52.92,19.3 C54.22,19.3 55.26,18.9 56.04,18.2 L56.04,19 L59.24,19 L59.24,8.96 L56.04,8.96 L56.04,9.76 C55.26,9.06 54.22,8.66 52.92,8.66 C50.26,8.66 48.02,10.82 48.02,13.98 C48.02,17.16 50.26,19.3 52.92,19.3 Z M53.58,16.58 C52.18,16.58 51.16,15.54 51.16,13.98 C51.16,12.44 52.18,11.38 53.58,11.38 C54.88,11.38 56.04,12.44 56.04,13.98 C56.04,15.54 54.88,16.58 53.58,16.58 Z M64.76,19 L64.76,4.6 L61.56,4.6 L61.56,19 L64.76,19 Z M78.58,19 L78.58,8.48 L82.92,8.48 L82.92,5.6 L70.96,5.6 L70.96,8.48 L75.3,8.48 L75.3,19 L78.58,19 Z M89.46,19.02 L91.28,13.58 L93.08,19.02 L95.86,19.02 L99.08,8.96 L95.94,8.96 L94.28,14.36 L92.4,8.96 L90.14,8.96 L88.26,14.36 L86.6,8.96 L83.46,8.96 L86.68,19.02 L89.46,19.02 Z M102.14,7.78 C103.22,7.78 104,7.02 104,6 C104,5.02 103.22,4.18 102.14,4.18 C101.06,4.18 100.3,5.02 100.3,6 C100.3,7.02 101.06,7.78 102.14,7.78 Z M103.74,19 L103.74,8.96 L100.54,8.96 L100.54,19 L103.74,19 Z M109.42,19 L109.42,14.34 C109.42,12.4 110.24,11.54 111.5,11.54 C112.52,11.54 113.22,12.34 113.22,13.52 L113.22,19 L116.4,19 L116.4,12.84 C116.4,10.32 114.84,8.66 112.5,8.66 C111.24,8.66 110.2,9.12 109.42,9.92 L109.42,8.96 L106.22,8.96 L106.22,19 L109.42,19 Z" id="DigitalTwin"></path>
            <path d="M9.02,43 L14.72,29.6 L11.08,29.6 L7.42,38.48 L3.78,29.6 L0.14,29.6 L5.84,43 L9.02,43 Z M17.78,31.78 C18.86,31.78 19.64,31.02 19.64,30 C19.64,29.02 18.86,28.18 17.78,28.18 C16.7,28.18 15.94,29.02 15.94,30 C15.94,31.02 16.7,31.78 17.78,31.78 Z M19.38,43 L19.38,32.96 L16.18,32.96 L16.18,43 L19.38,43 Z M26.68,43.3 C28.94,43.3 30.88,42.06 31.6,40.06 L28.72,39.16 C28.3,40.08 27.56,40.5 26.68,40.5 C25.24,40.5 24.28,39.46 24.28,37.98 C24.28,36.52 25.24,35.46 26.68,35.46 C27.54,35.46 28.28,35.88 28.64,36.76 L31.56,35.78 C30.78,33.86 28.86,32.66 26.68,32.66 C23.68,32.66 21.2,34.82 21.2,37.98 C21.2,41.16 23.68,43.3 26.68,43.3 Z M37.96,43.3 C39.1,43.3 39.92,42.98 40.7,42.56 L39.96,40.04 C39.54,40.28 38.94,40.44 38.5,40.44 C37.66,40.44 37.16,40.02 37.16,38.98 L37.16,35.5 L40.12,35.5 L40.12,32.96 L37.16,32.96 L37.16,30 L33.96,30 L33.96,32.96 L32.14,32.96 L32.14,35.5 L33.96,35.5 L33.96,39.3 C33.96,41.94 35.46,43.3 37.96,43.3 Z M46.82,43.28 C49.8,43.28 52.32,41.16 52.32,37.98 C52.32,34.82 49.8,32.7 46.82,32.7 C43.78,32.7 41.26,34.82 41.26,37.98 C41.26,41.16 43.78,43.28 46.82,43.28 Z M46.82,40.58 C45.52,40.58 44.34,39.56 44.34,37.98 C44.34,36.42 45.52,35.38 46.82,35.38 C48.06,35.38 49.24,36.42 49.24,37.98 C49.24,39.56 48.06,40.58 46.82,40.58 Z M57.18,43 L57.18,39.86 C57.18,37.26 58.4,36.1 60.64,36.1 L61.22,36.1 L61.36,32.9 C61.12,32.84 60.92,32.82 60.64,32.82 C59,32.82 57.9,33.68 57.18,34.88 L57.18,32.96 L53.98,32.96 L53.98,43 L57.18,43 Z M64.48,31.78 C65.56,31.78 66.34,31.02 66.34,30 C66.34,29.02 65.56,28.18 64.48,28.18 C63.4,28.18 62.64,29.02 62.64,30 C62.64,31.02 63.4,31.78 64.48,31.78 Z M66.08,43 L66.08,32.96 L62.88,32.96 L62.88,43 L66.08,43 Z M72.8,43.3 C74.1,43.3 75.14,42.9 75.92,42.2 L75.92,43 L79.12,43 L79.12,32.96 L75.92,32.96 L75.92,33.76 C75.14,33.06 74.1,32.66 72.8,32.66 C70.14,32.66 67.9,34.82 67.9,37.98 C67.9,41.16 70.14,43.3 72.8,43.3 Z M73.46,40.58 C72.06,40.58 71.04,39.54 71.04,37.98 C71.04,36.44 72.06,35.38 73.46,35.38 C74.76,35.38 75.92,36.44 75.92,37.98 C75.92,39.54 74.76,40.58 73.46,40.58 Z" id="Victoria" opacity="0.800000012"></path>
        </g>
        <g id="Group-6-Copy" transform="translate(223.000000, 4.000000)" fill-rule="nonzero">
            <g id="Group" transform="translate(55.281549, 11.338212)" fill="#FFFFFF">
                <path d="M3.77014085,6.00366197 C3.77014085,6.4015493 3.52690141,6.64464789 3.12887324,6.64464789 L0.774084507,6.64464789 L0.774084507,0.718732394 L3.12887324,0.718732394 C3.52690141,0.718732394 3.77014085,0.961971831 3.77014085,1.36 L3.77014085,6.00366197 Z M3.31690141,-2.00152883e-15 L0.197464789,-2.00152883e-15 C0.0884507042,-2.00152883e-15 -4.00305766e-15,0.0883098592 -4.00305766e-15,0.197464789 L-4.00305766e-15,7.16591549 C-4.00305766e-15,7.27492958 0.0884507042,7.36338028 0.197464789,7.36338028 L3.31690141,7.36338028 C4.02450704,7.36338028 4.54408451,6.84352113 4.54408451,6.13633803 L4.54408451,1.22732394 C4.54408451,0.509014085 4.02450704,-2.00152883e-15 3.31690141,-2.00152883e-15 L3.31690141,-2.00152883e-15 Z" id="Fill-1"></path>
                <path d="M7.62295775,9.87126761 L5.26169014,9.87126761 C5.15253521,9.87126761 5.06422535,9.95971831 5.06422535,10.0685915 L5.06422535,10.8349296 C5.06422535,10.9439437 5.15253521,11.0322535 5.26169014,11.0322535 L6.54887324,11.0322535 L6.54887324,17.0371831 C6.54887324,17.1461972 6.63732394,17.2346479 6.74633803,17.2346479 L7.62295775,17.2346479 C7.73183099,17.2346479 7.82028169,17.1461972 7.82028169,17.0371831 L7.82028169,10.0685915 C7.82028169,9.95971831 7.73183099,9.87126761 7.62295775,9.87126761" id="Fill-2"></path>
                <path d="M3.08464789,15.786338 C3.08464789,15.9521127 2.95197183,16.0739437 2.78619718,16.0739437 L1.57,16.0739437 C1.40408451,16.0739437 1.2715493,15.9521127 1.2715493,15.786338 L1.2715493,14.8023944 C1.2715493,14.6364789 1.36,14.5038028 1.57,14.4374648 C1.83535211,14.3488732 2.50971831,14.2160563 2.78619718,14.2160563 C2.97408451,14.2160563 3.08464789,14.3380282 3.08464789,14.5038028 L3.08464789,15.786338 Z M3.18408451,13.0115493 C2.64239437,13.0115493 1.8684507,13.1442254 1.2715493,13.3319718 L1.2715493,11.3195775 C1.2715493,11.153662 1.40408451,11.0322535 1.57,11.0322535 L3.69746479,11.0322535 C3.80647887,11.0322535 3.89492958,10.9439437 3.89492958,10.8349296 L3.89492958,10.0685915 C3.89492958,9.95971831 3.80647887,9.87126761 3.69746479,9.87126761 L1.17197183,9.87126761 C0.51971831,9.87126761 0,10.3909859 0,11.0322535 L0,16.0739437 C0,16.7149296 0.508732394,17.2346479 1.15,17.2346479 L3.18408451,17.2346479 C3.83647887,17.2346479 4.35605634,16.7149296 4.35605634,16.0739437 L4.35605634,14.1722535 C4.35605634,13.5309859 3.93605634,13.0115493 3.18408451,13.0115493 L3.18408451,13.0115493 Z" id="Fill-3"></path>
                <path d="M15.7385915,-2.00152883e-15 L10.9702817,-2.00152883e-15 C10.8614085,-2.00152883e-15 10.7729577,0.0883098592 10.7729577,0.197464789 L10.7729577,0.521267606 C10.7729577,0.63028169 10.8614085,0.718732394 10.9702817,0.718732394 L12.9730986,0.718732394 L12.9730986,7.16591549 C12.9730986,7.27492958 13.0615493,7.36338028 13.1704225,7.36338028 L13.5495775,7.36338028 C13.6585915,7.36338028 13.7469014,7.27492958 13.7469014,7.16591549 L13.7469014,0.718732394 L15.7385915,0.718732394 C15.8476056,0.718732394 15.9360563,0.63028169 15.9360563,0.521267606 L15.9360563,0.197464789 C15.9360563,0.0883098592 15.8476056,-2.00152883e-15 15.7385915,-2.00152883e-15" id="Fill-4"></path>
                <path d="M7.17887324,4.7543662 L8.4171831,0.961971831 L9.6443662,4.7543662 L7.17887324,4.7543662 Z M11.234507,7.10253521 L11.234507,7.10253521 L8.82746479,0.131830986 C8.80028169,0.0553521127 8.72690141,-2.00152883e-15 8.64126761,-2.00152883e-15 L8.1928169,-2.00152883e-15 C8.1071831,-2.00152883e-15 8.03394366,0.0553521127 8.00676056,0.131830986 L5.60028169,7.10126761 C5.59295775,7.12169014 5.58816901,7.14295775 5.58816901,7.16591549 C5.58816901,7.27492958 5.67661972,7.36338028 5.7856338,7.36338028 L6.15253521,7.36338028 C6.23732394,7.36338028 6.30901408,7.30929577 6.3371831,7.2343662 L6.33788732,7.23464789 L6.9356338,5.4615493 L9.87647887,5.4615493 L10.4928169,7.2284507 L10.4928169,7.22802817 C10.5190141,7.30619718 10.5926761,7.36338028 10.6798592,7.36338028 L11.0478873,7.36338028 C11.1569014,7.36338028 11.2453521,7.27492958 11.2453521,7.16591549 C11.2453521,7.14338028 11.2415493,7.12267606 11.234507,7.10253521 L11.234507,7.10253521 Z" id="Fill-5"></path>
                <path d="M17.1359155,4.7543662 L18.3742254,0.961971831 L19.6012676,4.7543662 L17.1359155,4.7543662 Z M21.1915493,7.10253521 L21.1915493,7.10253521 L18.784507,0.131830986 C18.7571831,0.0553521127 18.6840845,-2.00152883e-15 18.598169,-2.00152883e-15 L18.15,-2.00152883e-15 C18.0640845,-2.00152883e-15 17.9909859,0.0553521127 17.963662,0.131830986 L15.5350704,7.08915493 L15.5573239,7.10126761 C15.5501408,7.12169014 15.5453521,7.14295775 15.5453521,7.16591549 C15.5453521,7.27492958 15.633662,7.36338028 15.7426761,7.36338028 L16.1094366,7.36338028 C16.1943662,7.36338028 16.2661972,7.30929577 16.2940845,7.2343662 L16.2949296,7.23464789 L16.8926761,5.4615493 L19.8335211,5.4615493 L20.4498592,7.2284507 L20.4498592,7.22802817 C20.4760563,7.30619718 20.5498592,7.36338028 20.6369014,7.36338028 L21.0049296,7.36338028 C21.1140845,7.36338028 21.2023944,7.27492958 21.2023944,7.16591549 C21.2023944,7.14338028 21.1984507,7.12267606 21.1915493,7.10253521 L21.1915493,7.10253521 Z" id="Fill-6"></path>
            </g>
            <path d="M84.5667606,12.4842682 C84.651831,12.5383527 84.7116901,12.6293386 84.7116901,12.7375076 C84.7116901,12.741733 84.7116901,25.5576485 84.7116901,27.185395 C84.7116901,27.293564 84.6516901,27.3846907 84.5666197,27.4384935 L84.5667606,27.4384935 L84.5666197,27.4384935 L84.5671831,27.4384935 L83.8625352,27.8455358 C83.8170423,27.8724372 83.763662,27.8882119 83.7069014,27.8882119 C83.6507042,27.8882119 83.5980282,27.8730006 83.5529577,27.8465217 L82.8464789,27.4384935 L82.8469014,27.4384935 C82.7619718,27.3846907 82.7021127,27.293564 82.7021127,27.185395 L82.7021127,12.7375076 C82.7021127,12.6293386 82.7621127,12.5383527 82.8470423,12.4842682 L82.8469014,12.4842682 L82.8470423,12.4842682 L82.8464789,12.4842682 L83.5511268,12.0775076 C83.5967606,12.0503245 83.65,12.0346907 83.7069014,12.0346907 C83.7629577,12.0346907 83.8156338,12.049902 83.8608451,12.0763809 L84.5671831,12.4842682 L84.5667606,12.4842682 Z M50.0553521,7.51440904 C50.0595775,7.41384566 50.1084507,7.31638087 50.2021127,7.26229637 C50.2057746,7.26018369 61.3046479,0.85215552 62.714507,0.0383527033 C62.808169,-0.0157318038 62.9169014,-0.00939377559 63.0060563,0.0372259427 L63.0061972,0.0372259427 L63.0059155,0.0369442526 L63.7105634,0.443563971 C63.7567606,0.469479464 63.7970423,0.507930168 63.825493,0.557085098 C63.8535211,0.605676647 63.8667606,0.658916084 63.8664833,0.711169605 L63.866338,1.52694425 L63.8660563,1.52652172 L63.8660563,1.52666256 C63.8616901,1.62722594 63.8129577,1.72454989 63.7192958,1.77863439 L51.2069014,9.00257806 C51.1132394,9.05680341 51.0043662,9.05032453 50.9152113,9.00370482 L50.9153521,9.00370482 L50.9152113,9.00370482 L50.9153521,9.00412735 L50.2108451,8.59736679 C50.164507,8.57145129 50.1242254,8.53300059 50.0959155,8.48384566 C50.0678873,8.43539496 50.0546479,8.38215552 50.0550606,8.32976115 L50.0550606,7.51398651 L50.0553521,7.5142682 L50.0552113,7.5142682 L50.0553521,7.51440904 Z M50.9152113,30.9203245 C51.0043662,30.8737048 51.1132394,30.8673668 51.2069014,30.9214513 C51.2105634,30.923564 62.3095775,37.3315921 63.7192958,38.145395 C63.8129577,38.1994795 63.8616901,38.2968034 63.8660563,38.3975076 L63.8663649,38.3970851 L63.8663649,39.2106062 C63.8670423,39.263564 63.8539437,39.3177893 63.825493,39.3669443 C63.7973239,39.415395 63.7578873,39.453564 63.7125352,39.4794795 L63.0059155,39.8872259 L63.0060563,39.8868034 C62.9167606,39.9334231 62.808169,39.9397612 62.714507,39.8856766 L50.2021127,32.661733 C50.1084507,32.6077893 50.0595775,32.5101837 50.0553521,32.4096203 L50.0550435,32.4100428 L50.0550435,31.5963809 C50.0543662,31.5434231 50.0674648,31.4893386 50.0959155,31.4401837 C50.1239437,31.391733 50.1635211,31.353564 50.2090141,31.3277893 L50.9153521,30.919902 L50.9153521,30.9203245 L50.9153521,30.9201837 L50.9152113,30.9203245 Z M67.8861972,38.398071 C67.8902817,38.2973668 67.9392958,38.2000428 68.0329577,38.1459583 C68.0364789,38.1438457 79.135493,31.7358175 80.5453521,30.9220147 C80.6390141,30.8679302 80.7477465,30.8742682 80.8369014,30.9210288 L80.8369014,30.9208879 L80.8370423,30.9208879 L80.8367606,30.9204654 L81.5414085,31.3273668 C81.5876056,31.3531414 81.6278873,31.3915921 81.6561972,31.4407471 C81.6842254,31.4893386 81.6974648,31.5425781 81.6971875,31.5948316 L81.6970423,32.4106062 L81.6967606,32.4101837 L81.6967606,32.4103245 L81.6967606,32.4101837 C81.6925352,32.5108879 81.643662,32.6082119 81.55,32.6622964 L69.0376056,39.88624 C68.9439437,39.9403245 68.8352113,39.9339865 68.7459155,39.8873668 L68.7461972,39.8877893 L68.0415493,39.4808879 C67.9953521,39.4551133 67.9550704,39.4166626 67.9267606,39.3675076 C67.8987324,39.3189161 67.885493,39.2656766 67.8857702,39.2134231 L67.8859155,38.3976485 L67.8860563,38.398071 L67.8860563,38.3979302 L67.8861972,38.398071 Z M48.9052113,12.4842682 C48.9902817,12.5383527 49.05,12.6293386 49.05,12.7375076 C49.05,12.741733 49.05,25.5576485 49.05,27.185395 C49.05,27.293564 48.9902817,27.3846907 48.9050704,27.4384935 L48.9052113,27.4384935 L48.9050704,27.4384935 L48.9056338,27.4384935 L48.2009859,27.8455358 C48.155493,27.8724372 48.1021127,27.8882119 48.0453521,27.8882119 C47.9891549,27.8882119 47.9364789,27.8730006 47.8914085,27.8465217 L47.1849296,27.4384935 L47.185493,27.4384935 L47.1853521,27.4384935 L47.185493,27.4384935 C47.1004225,27.3846907 47.0405634,27.293564 47.0405634,27.185395 L47.0405634,12.7375076 C47.0405634,12.6293386 47.1005634,12.5383527 47.185493,12.4842682 L47.1849296,12.4842682 L47.8895775,12.0775076 C47.9350704,12.0503245 47.9884507,12.0346907 48.0453521,12.0346907 C48.1014085,12.0346907 48.1540845,12.049902 48.1991549,12.0763809 L48.9056338,12.4842682 L48.9052113,12.4842682 Z" id="Combined-Shape" fill="#FFFFFF"></path>
            <path d="M19.9629577,4.28441287e-05 C30.988169,4.28441287e-05 39.9256338,8.93652172 39.9256338,19.9618738 C39.9256338,30.9877893 30.988169,39.9246907 19.9629577,39.9246907 C8.93746479,39.9246907 -5.58283578e-14,30.9877893 -5.58283578e-14,19.9618738 C-5.58283578e-14,8.93652172 8.93746479,4.28441287e-05 19.9629577,4.28441287e-05 Z" id="Fill-17" fill="#FFFFFF"></path>
            <path d="M31.0439437,30.5084935 C29.1385915,30.5084935 27.7708451,29.0896203 27.7708451,27.3327189 L27.7708451,27.3158175 C27.7708451,25.5587752 29.1566197,24.1206062 31.0622535,24.1206062 C32.9680282,24.1206062 34.3342254,25.5418738 34.3342254,27.2975076 L34.3342254,27.3158175 C34.3342254,29.0708879 32.9492958,30.5084935 31.0439437,30.5084935 Z" id="Fill-17-path" fill="#000000"></path>
            <path d="M27.1842254,16.1607471 L27.1842254,10.5355358 C27.1842254,9.98863439 27.6284507,9.54525411 28.1746479,9.54525411 C28.7214085,9.54525411 29.1638028,9.98863439 29.1638028,10.5355358 L29.1638028,16.1607471 C29.1638028,16.70624 28.7214085,17.1504654 28.1746479,17.1504654 C27.6284507,17.1504654 27.1842254,16.70624 27.1842254,16.1607471 Z" id="Fill-17-path" fill="#000000"></path>
            <path d="M25.4133803,30.4027189 L24.0897183,28.4282119 L23.0228169,28.4282119 L23.0228169,30.4027189 L21.6639437,30.4027189 L21.6639437,24.2269443 L24.4869014,24.2269443 C25.9415493,24.2269443 26.8156338,24.9948316 26.8156338,26.2649724 L26.8156338,26.2831414 C26.8156338,27.2794795 26.2787324,27.9068034 25.4926761,28.1976485 L27.0016901,30.4027189 L25.4133803,30.4027189 Z" id="Fill-17-path" fill="#000000"></path>
            <path d="M20.5504225,17.1106062 L20.5504225,8.63356397 C20.5504225,8.08722594 20.9935211,7.64328228 21.5414085,7.64328228 C22.0873239,7.64328228 22.5309859,8.08722594 22.5309859,8.63356397 L22.5309859,17.1106062 C22.5309859,17.6565217 22.0873239,18.1006062 21.5414085,18.1006062 C20.9935211,18.1006062 20.5504225,17.6565217 20.5504225,17.1106062 Z" id="Fill-17-path" fill="#000000"></path>
            <path d="M24.8577465,20.0025781 C25.4487324,20.0025781 25.9277465,20.4811696 25.9277465,21.0710288 C25.9277465,21.6620147 25.4487324,22.139902 24.8577465,22.139902 C24.2673239,22.139902 23.7883099,21.6620147 23.7883099,21.0710288 C23.7883099,20.4811696 24.2673239,20.0025781 24.8577465,20.0025781 Z" id="Fill-17-path" fill="#000000"></path>
            <path d="M23.8673239,5.78187383 C23.8673239,5.23440904 24.3112676,4.79159214 24.8577465,4.79159214 C25.4050704,4.79159214 25.8473239,5.23440904 25.8473239,5.78187383 L25.8473239,18.0610288 C25.8473239,18.6072259 25.4050704,19.0515921 24.8577465,19.0515921 C24.3112676,19.0515921 23.8673239,18.6072259 23.8673239,18.0610288 L23.8673239,5.78187383 Z" id="Fill-17-path" fill="#000000"></path>
            <polygon id="Fill-17-path" fill="#000000" points="19.9256338 27.2275076 19.9256338 30.4027189 18.5671831 30.4027189 18.5671831 24.2269443 19.9256338 24.2269443"></polygon>
            <path d="M17.2328169,14.258071 L17.2328169,5.78187383 C17.2328169,5.23440904 17.6771831,4.79159214 18.2238028,4.79159214 C18.7698592,4.79159214 19.2133803,5.23440904 19.2133803,5.78187383 L19.2133803,14.258071 C19.2133803,14.8055358 18.7698592,15.2484935 18.2238028,15.2484935 C17.6771831,15.2484935 17.2328169,14.8055358 17.2328169,14.258071 Z" id="Fill-17-path" fill="#000000"></path>
            <path d="M17.0642254,28.5769443 C17.0642254,29.8048316 16.1294366,30.4913104 14.7970423,30.4913104 C13.8619718,30.4913104 12.9187324,30.1652541 12.1773239,29.5032823 L12.9791549,28.5411696 C13.5349296,29.0003245 14.1180282,29.2920147 14.8250704,29.2920147 C15.3807042,29.2920147 15.7150704,29.0708879 15.7150704,28.7093386 L15.7150704,28.6922964 C15.7150704,28.3466626 15.5026761,28.1708879 14.4704225,27.9068034 C13.2284507,27.5886344 12.4235211,27.2434231 12.4235211,26.018071 L12.4235211,26.0003245 C12.4235211,24.8804654 13.3235211,24.1389161 14.5849296,24.1389161 C15.4852113,24.1389161 16.254507,24.419902 16.8794366,24.9245499 L16.1735211,25.9473668 C15.6273239,25.5682119 15.0890141,25.3382119 14.5674648,25.3382119 C14.0473239,25.3382119 13.7733803,25.5765217 13.7733803,25.8768034 L13.7733803,25.8963809 C13.7733803,26.3010288 14.0380282,26.4320147 15.1060563,26.7048316 C16.3590141,27.0328597 17.0642254,27.4825781 17.0642254,28.559902 L17.0642254,28.5769443 Z" id="Fill-17-path" fill="#000000"></path>
            <path d="M10.5998592,16.1607471 L10.5998592,10.5355358 C10.5998592,9.98863439 11.0430986,9.54525411 11.5902817,9.54525411 C12.1366197,9.54525411 12.5792958,9.98863439 12.5792958,10.5355358 L12.5792958,16.1607471 C12.5792958,16.70624 12.1366197,17.1504654 11.5902817,17.1504654 C11.0430986,17.1504654 10.5998592,16.70624 10.5998592,16.1607471 Z" id="Fill-17-path" fill="#000000"></path>
            <path d="M8.75760563,30.5084935 C6.94098592,30.5084935 5.59056338,29.1058175 5.59056338,27.3327189 L5.59056338,27.3158175 C5.59056338,25.5587752 6.91323944,24.1206062 8.81056338,24.1206062 C9.97661972,24.1206062 10.6721127,24.5106062 11.246338,25.0742682 L10.3815493,26.0703245 C9.90394366,25.6396203 9.41971831,25.3737048 8.8015493,25.3737048 C7.76126761,25.3737048 7.01028169,26.2384935 7.01028169,27.2975076 L7.01028169,27.3158175 C7.01028169,28.3728597 7.74352113,29.2568034 8.8015493,29.2568034 C9.50901408,29.2568034 9.94014085,28.9741274 10.4256338,28.5324372 L11.2904225,29.4068034 C10.6549296,30.085395 9.94915493,30.5084935 8.75760563,30.5084935 Z" id="Fill-17-path" fill="#000000"></path>
            <path d="M13.9159155,7.6827189 C13.9159155,7.13581749 14.3595775,6.69243721 14.9067606,6.69243721 C15.4532394,6.69243721 15.8973239,7.13581749 15.8973239,7.6827189 L15.8973239,15.2089161 C15.8973239,15.7558175 15.4532394,16.1997612 14.9067606,16.1997612 C14.3595775,16.1997612 13.9159155,15.7558175 13.9159155,15.2089161 L13.9159155,7.6827189 Z" id="Fill-17-path" fill="#000000"></path>
            <path d="M24.3725352,25.4538457 L23.0228169,25.4538457 L23.0228169,27.2275076 L24.3988732,27.2275076 C25.0612676,27.2275076 25.4387324,26.8745499 25.4387324,26.3537048 L25.4387324,26.33624 C25.4387324,25.753564 25.0343662,25.4538457 24.3725352,25.4538457 Z" id="Fill-17-path" fill="#FFFFFF"></path>
            <path d="M31.0439437,25.3737048 C29.9494366,25.3737048 29.1914085,26.2384935 29.1914085,27.2975076 L29.1914085,27.3158175 C29.1914085,28.3728597 29.9671831,29.2568034 31.0622535,29.2568034 C32.1560563,29.2568034 32.9150704,28.3918738 32.9150704,27.3327189 L32.9150704,27.3158175 C32.9150704,26.2568034 32.1383099,25.3737048 31.0439437,25.3737048 Z" id="Fill-17-path" fill="#FFFFFF"></path>
        </g>
        <path d="M37.0340088,4.04017621 L31.21,16.6061762 L37.2059912,16.6068722 L37.2059912,18.818326 L34.7170044,18.818326 L34.7170044,25.6209692 L32.2401762,25.6209692 L32.2401762,18.818326 L30.185,18.8181762 L28.2218502,23.0567401 L26.8611454,22.2401762 C26.4713656,22.8895154 25.763348,23.3265198 24.9607048,23.3265198 C23.7332159,23.3265198 22.741674,22.322467 22.741674,21.1069604 C22.741674,19.8914537 23.7332159,18.8874009 24.9607048,18.8874009 C25.763348,18.8874009 26.4713656,19.3367401 26.8611454,19.9737445 L26.8611454,19.9737445 L28.926696,18.7342731 C28.1242291,17.3887225 26.6488106,16.4794714 24.9607048,16.4794714 C22.316652,16.4794714 20.2156828,18.474185 20.2156828,21.1069604 C20.2156828,23.7397357 22.316652,25.7346256 24.9607048,25.7346256 C25.8014097,25.7346256 26.5890749,25.5087225 27.2673128,25.1162996 L27.2673128,25.1162996 L18.5168282,44 L9.96352423,25.5418502 L11.713304,25.5418502 L15.815859,16.6882819 L13.0780617,16.6882819 L10.8357709,21.5268722 L8.59348018,16.6882819 L5.86096916,16.6882819 L-3.55271368e-15,4.04017621 L37.0340088,4.04017621 Z M56.8995595,30.5968282 C57.3284581,30.5968282 57.6281938,30.7711013 57.8345374,31.0257269 L57.8345374,30.6807048 L58.6565639,30.6807048 L58.6565639,33.8045815 L57.8345374,33.8045815 L57.8345374,33.4595595 C57.6313656,33.7111894 57.3284581,33.8851101 56.8995595,33.8851101 C56.0387665,33.8851101 55.3876652,33.1793833 55.3876652,32.2410573 C55.3876652,31.3029075 56.0387665,30.5968282 56.8995595,30.5968282 Z M41.3485463,30.6001762 C41.8482819,30.6001762 42.2384141,30.6935683 42.6542731,30.8967401 L42.3705727,31.5511894 C42.1222907,31.4287225 41.725815,31.2997357 41.3744493,31.2965639 C41.0551542,31.2965639 40.8940969,31.4093392 40.8940969,31.5800881 C40.8940969,31.7607048 41.1196476,31.8059912 41.4035242,31.8477533 L41.6807048,31.8896916 C42.3577093,31.9927753 42.7348018,32.295859 42.7348018,32.8246696 C42.7348018,33.4694273 42.2061674,33.8851101 41.3002643,33.8851101 C40.8747137,33.8851101 40.3170044,33.8045815 39.910837,33.5177093 L40.2428194,32.8792952 C40.5103084,33.0567401 40.8359471,33.1857269 41.3067841,33.1857269 C41.6969163,33.1857269 41.8837004,33.0761233 41.8837004,32.8923348 C41.8837004,32.740793 41.725815,32.6570925 41.3647577,32.6054626 L41.1101322,32.5700441 C40.3878414,32.4699559 40.0301322,32.1540088 40.0301322,31.6222026 C40.0301322,30.9806167 40.5265198,30.6001762 41.3485463,30.6001762 Z M37.3027313,30.6807048 L37.3027313,32.3991189 C37.3027313,32.8988546 37.5769163,33.1018502 37.9411454,33.1018502 C38.3022026,33.1018502 38.5793833,32.8988546 38.5793833,32.3991189 L38.5793833,30.6807048 L39.4176211,30.6807048 L39.4176211,32.473304 C39.4176211,33.4595595 38.7214097,33.8851101 37.9411454,33.8851101 C37.1577093,33.8851101 36.4614978,33.4595595 36.4614978,32.473304 L36.4614978,30.6807048 L37.3027313,30.6807048 Z M49.8977974,30.5968282 C50.3265198,30.5968282 50.6264317,30.7711013 50.8325991,31.0257269 L50.8325991,30.6807048 L51.6548018,30.6807048 L51.6548018,33.8045815 L50.8325991,33.8045815 L50.8325991,33.4595595 C50.6296035,33.7111894 50.3265198,33.8851101 49.8977974,33.8851101 C49.0370044,33.8851101 48.3859031,33.1793833 48.3859031,32.2410573 C48.3859031,31.3029075 49.0370044,30.5968282 49.8977974,30.5968282 Z M44.3756828,29.7522467 L44.3756828,30.6807048 L45.5073128,30.6807048 L45.5073128,31.4287225 L44.3756828,31.4287225 L44.3756828,32.5700441 C44.3756828,32.96 44.5820264,33.1018502 44.8431718,33.1018502 C45.0429956,33.1018502 45.2590308,33.0019383 45.4297797,32.8988546 L45.7393833,33.5562996 C45.4653744,33.7434361 45.1494273,33.8851101 44.7044934,33.8851101 C43.9307489,33.8851101 43.5342731,33.446696 43.5342731,32.637533 L43.5342731,31.4287225 L42.9314537,31.4287225 L42.9314537,30.6807048 L43.5342731,30.6807048 L43.5342731,29.7522467 L44.3756828,29.7522467 Z M34.424141,29.2912775 L36.1813216,33.8045815 L35.2206167,33.8045815 L34.8271366,32.7536564 L32.9027313,32.7536564 L32.5092511,33.8045815 L31.5711013,33.8045815 L33.3282819,29.2912775 L34.424141,29.2912775 Z M54.8331278,30.6807048 L54.8331278,33.8045815 L53.9917181,33.8045815 L53.9917181,30.6807048 L54.8331278,30.6807048 Z M53.2438767,29.1622907 L53.2438767,33.8045815 L52.4026432,33.8045815 L52.4026432,29.1622907 L53.2438767,29.1622907 Z M47.8088106,30.5968282 C47.9894273,30.5968282 48.1311013,30.6227313 48.2474009,30.6646696 L48.1215859,31.4995595 C47.9830837,31.4384141 47.7830837,31.3996476 47.6121586,31.3996476 C47.2220264,31.3996476 46.9545374,31.6380617 46.9545374,32.1023789 L46.9545374,33.8045815 L46.1131278,33.8045815 L46.1131278,30.6807048 L46.9286344,30.6807048 L46.9286344,31.0223789 C47.1252863,30.7289868 47.4251982,30.5968282 47.8088106,30.5968282 Z M57.0542731,31.3804405 C56.5610573,31.3804405 56.2484581,31.7638767 56.2484581,32.2410573 C56.2484581,32.7182379 56.5610573,33.1018502 57.0542731,33.1018502 C57.5348018,33.1018502 57.8602643,32.7342731 57.8602643,32.2410573 C57.8602643,31.7478414 57.5348018,31.3804405 57.0542731,31.3804405 Z M50.052511,31.3804405 C49.5592952,31.3804405 49.2465198,31.7638767 49.2465198,32.2410573 C49.2465198,32.7182379 49.5592952,33.1018502 50.052511,33.1018502 C50.5328634,33.1018502 50.8585022,32.7342731 50.8585022,32.2410573 C50.8585022,31.7478414 50.5328634,31.3804405 50.052511,31.3804405 Z M33.8664317,30.1811454 L33.2119824,31.9251101 L34.5178855,31.9251101 L33.8664317,30.1811454 Z M54.4075771,29.1171806 C54.7104846,29.1171806 54.9459031,29.3557709 54.9459031,29.6588546 C54.9459031,29.9619383 54.7104846,30.1940088 54.4075771,30.1940088 C54.1044934,30.1940088 53.8722467,29.9619383 53.8722467,29.6588546 C53.8722467,29.3557709 54.1044934,29.1171806 54.4075771,29.1171806 Z M42.621674,16.402467 C45.3289868,16.402467 47.5023789,18.4336564 47.5023789,21.1138326 C47.5023789,23.7940088 45.3289868,25.8253744 42.621674,25.8253744 C39.9140088,25.8253744 37.740793,23.7940088 37.740793,21.1138326 C37.740793,18.4336564 39.9140088,16.402467 42.621674,16.402467 Z M52.8651982,16.606696 C54.7834361,16.606696 56.3013216,18.0008811 56.3013216,19.8879295 C56.3013216,21.1018502 55.609163,21.9911894 54.734978,22.5922467 L54.734978,22.5922467 L56.2770044,25.6209692 L53.4965639,25.6209692 L52.3674009,23.1689868 L51.2017621,23.1689868 L51.2017621,25.6209692 L48.7251101,25.6209692 L48.7251101,16.606696 Z M60.2812335,16.606696 L60.2812335,25.620793 L57.8044053,25.620793 L57.8044053,16.606696 L60.2812335,16.606696 Z M66.3570044,16.6056388 L70.5333921,25.620793 L67.8773568,25.620793 L67.4417621,24.5991189 L64.3429075,24.5991189 L63.907489,25.620793 L61.2514537,25.620793 L65.4280176,16.6056388 L66.3570044,16.6056388 Z M19.0889868,16.6881057 L16.5596476,16.6881057 L16.5596476,25.5418502 L19.0889868,25.5418502 L19.0889868,16.6881057 Z M42.621674,18.8542731 C41.3711013,18.8542731 40.3390308,19.8759471 40.3390308,21.1138326 C40.3390308,22.3517181 41.3711013,23.3733921 42.621674,23.3733921 C43.8720705,23.3733921 44.904141,22.3517181 44.904141,21.1138326 C44.904141,19.8759471 43.8720705,18.8542731 42.621674,18.8542731 Z M65.9180617,20.7044934 L65.8666079,20.7044934 L65.098326,22.4593833 L66.6863436,22.4593833 L65.9180617,20.7044934 Z M52.8651982,18.818326 L51.2017621,18.818326 L51.2017621,20.9455507 L52.8651982,20.9455507 C53.4237885,20.9455507 53.7880176,20.3326872 53.7880176,19.8879295 C53.7880176,19.443348 53.4237885,18.818326 52.8651982,18.818326 L52.8651982,18.818326 Z" id="Combined-Shape" fill="#FFFFFF"></path>
    </g>
</svg>